<?xml version="1.0" encoding="utf-8"?>
<!-- Generator: Adobe Illustrator 25.1.0, SVG Export Plug-In . SVG Version: 6.00 Build 0)  -->
<svg version="1.1" id="Layer_1" xmlns="http://www.w3.org/2000/svg" xmlns:xlink="http://www.w3.org/1999/xlink" x="0px" y="0px"
	 viewBox="0 0 431.2 186.7" style="enable-background:new 0 0 431.2 186.7;" xml:space="preserve">
<style type="text/css">
	.st0{fill:#FFFFFF;}
	.st1{fill:#231F20;}
</style>
<g>
	<path class="st1" d="M385.4,66.9h-15.4c0.2,4,1,7.3,2.7,9.9c1.6,2.6,3.7,4.7,6.3,6.3c2.6,1.6,5.5,2.7,8.7,3.4c3.3,0.7,6.6,1,10.1,1
		c3.4,0,6.7-0.3,9.9-1c3.2-0.6,6.1-1.8,8.6-3.4c2.5-1.6,4.6-3.7,6.1-6.3c1.6-2.6,2.3-5.9,2.3-9.8c0-2.7-0.5-5.1-1.6-6.9
		c-1.1-1.9-2.5-3.4-4.2-4.7c-1.8-1.3-3.8-2.3-6-3c-2.2-0.8-4.6-1.4-6.9-1.9c-2.3-0.5-4.5-1-6.7-1.5c-2.2-0.5-4.2-1-5.9-1.5
		c-1.7-0.6-3.1-1.3-4.2-2.2c-1.1-0.9-1.6-2.1-1.6-3.5c0-1.2,0.3-2.2,0.9-2.9c0.6-0.7,1.4-1.3,2.2-1.7c0.9-0.4,1.8-0.6,2.9-0.7
		c1.1-0.1,2.1-0.2,3-0.2c2.9,0,5.4,0.6,7.5,1.7c2.1,1.1,3.3,3.2,3.5,6.3h15.4c-0.3-3.7-1.2-6.7-2.8-9.1c-1.6-2.4-3.5-4.3-5.9-5.8
		c-2.4-1.4-5.1-2.5-8.1-3.1c-3-0.6-6.1-0.9-9.3-0.9c-3.2,0-6.3,0.3-9.4,0.9c-3,0.6-5.8,1.6-8.2,3c-2.4,1.4-4.4,3.3-5.9,5.8
		c-1.5,2.4-2.2,5.6-2.2,9.4c0,2.6,0.5,4.8,1.6,6.6c1.1,1.8,2.5,3.3,4.2,4.5c1.8,1.2,3.8,2.1,6,2.9c2.2,0.7,4.6,1.4,6.9,1.9
		c5.8,1.2,10.3,2.4,13.6,3.7c3.2,1.2,4.9,3,4.9,5.5c0,1.4-0.3,2.6-1,3.6c-0.7,1-1.5,1.7-2.6,2.3c-1,0.6-2.2,1-3.4,1.3
		c-1.3,0.3-2.5,0.4-3.6,0.4c-1.6,0-3.1-0.2-4.6-0.6c-1.5-0.4-2.8-1-3.9-1.8c-1.1-0.8-2.1-1.8-2.8-3.1
		C385.7,70.2,385.4,68.7,385.4,66.9"/>
	<path class="st1" d="M325.5,66.9h-15.4c0.2,4,1,7.3,2.7,9.9c1.6,2.6,3.7,4.7,6.3,6.3c2.6,1.6,5.5,2.7,8.7,3.4c3.3,0.7,6.6,1,10.1,1
		c3.4,0,6.7-0.3,9.9-1c3.2-0.6,6.1-1.8,8.6-3.4c2.5-1.6,4.6-3.7,6.1-6.3c1.6-2.6,2.3-5.9,2.3-9.8c0-2.7-0.5-5.1-1.6-6.9
		c-1.1-1.9-2.5-3.4-4.2-4.7c-1.8-1.3-3.8-2.3-6-3c-2.2-0.8-4.6-1.4-6.9-1.9c-2.3-0.5-4.5-1-6.7-1.5c-2.2-0.5-4.2-1-5.9-1.5
		c-1.7-0.6-3.1-1.3-4.2-2.2c-1.1-0.9-1.6-2.1-1.6-3.5c0-1.2,0.3-2.2,0.9-2.9c0.6-0.7,1.4-1.3,2.2-1.7c0.9-0.4,1.8-0.6,2.9-0.7
		c1.1-0.1,2.1-0.2,3-0.2c2.9,0,5.4,0.6,7.5,1.7c2.1,1.1,3.3,3.2,3.5,6.3h15.4c-0.3-3.7-1.2-6.7-2.8-9.1c-1.6-2.4-3.5-4.3-5.9-5.8
		c-2.4-1.4-5.1-2.5-8.1-3.1c-3-0.6-6.1-0.9-9.3-0.9c-3.2,0-6.3,0.3-9.4,0.9c-3,0.6-5.8,1.6-8.2,3c-2.4,1.4-4.4,3.3-5.9,5.8
		c-1.5,2.4-2.2,5.6-2.2,9.4c0,2.6,0.5,4.8,1.6,6.6c1.1,1.8,2.5,3.3,4.2,4.5c1.8,1.2,3.8,2.1,6,2.9c2.2,0.7,4.6,1.4,6.9,1.9
		c5.8,1.2,10.3,2.4,13.6,3.7c3.2,1.2,4.9,3,4.9,5.5c0,1.4-0.3,2.6-1,3.6c-0.7,1-1.5,1.7-2.6,2.3c-1,0.6-2.2,1-3.4,1.3
		c-1.3,0.3-2.5,0.4-3.6,0.4c-1.6,0-3.1-0.2-4.6-0.6c-1.5-0.4-2.8-1-3.9-1.8c-1.1-0.8-2.1-1.8-2.8-3.1
		C325.9,70.2,325.5,68.7,325.5,66.9"/>
	<path class="st1" d="M249.8,45.2h16.2c0.3-3.2,1.4-5.5,3.2-6.9c1.8-1.4,4.3-2.1,7.5-2.1c1.4,0,2.8,0.1,4.1,0.3
		c1.3,0.2,2.4,0.6,3.3,1.1c1,0.6,1.7,1.4,2.3,2.4c0.6,1,0.9,2.4,0.9,4.2c0.1,1.7-0.4,3-1.5,3.8c-1.1,0.9-2.5,1.5-4.3,2
		c-1.8,0.5-3.9,0.8-6.3,1c-2.4,0.2-4.8,0.5-7.2,0.9c-2.4,0.4-4.9,0.9-7.3,1.5c-2.4,0.6-4.5,1.6-6.4,2.9c-1.9,1.3-3.4,3-4.6,5.2
		c-1.2,2.2-1.8,4.9-1.8,8.3c0,3,0.5,5.7,1.5,7.9c1,2.2,2.5,4,4.3,5.5c1.8,1.4,4,2.5,6.4,3.2c2.4,0.7,5.1,1,7.9,1
		c3.7,0,7.2-0.5,10.7-1.6c3.5-1.1,6.6-2.9,9.1-5.6c0.1,1,0.2,2,0.4,2.9c0.2,1,0.4,1.9,0.7,2.8h16.5c-0.8-1.2-1.3-3-1.6-5.5
		c-0.3-2.4-0.5-5-0.5-7.7V42.2c0-3.6-0.8-6.5-2.4-8.6c-1.6-2.2-3.7-3.9-6.2-5.1c-2.5-1.2-5.3-2-8.3-2.5c-3-0.4-6.1-0.6-9-0.6
		c-3.3,0-6.5,0.3-9.8,1c-3.2,0.6-6.2,1.7-8.7,3.3c-2.6,1.5-4.7,3.5-6.4,6.1C251,38.2,250,41.4,249.8,45.2 M287.3,57.2v6.1
		c0,0.9-0.1,2.1-0.3,3.7c-0.2,1.5-0.7,3-1.5,4.5c-0.8,1.5-2.1,2.8-3.9,3.8c-1.8,1.1-4.2,1.6-7.4,1.6c-1.3,0-2.6-0.1-3.8-0.3
		c-1.2-0.2-2.3-0.6-3.2-1.2c-0.9-0.6-1.6-1.4-2.2-2.3c-0.5-1-0.8-2.2-0.8-3.7c0-1.5,0.3-2.8,0.8-3.8c0.5-1,1.2-1.8,2.1-2.5
		c0.9-0.6,1.9-1.2,3.1-1.5c1.2-0.4,2.4-0.7,3.6-0.9c1.3-0.2,2.6-0.4,3.9-0.6c1.3-0.2,2.5-0.3,3.7-0.6c1.2-0.2,2.3-0.5,3.3-0.9
		C285.8,58.3,286.6,57.8,287.3,57.2z"/>
	<rect x="224.6" y="4.5" class="st1" width="16.2" height="81.7"/>
	<path class="st1" d="M202,47.8h15.9c-0.2-3.8-1.1-7.1-2.7-9.9c-1.6-2.8-3.7-5.1-6.2-7c-2.6-1.9-5.5-3.3-8.7-4.2
		c-3.2-0.9-6.6-1.4-10.1-1.4c-4.8,0-9.1,0.8-12.8,2.4c-3.7,1.6-6.9,3.8-9.5,6.7c-2.6,2.9-4.6,6.3-5.9,10.2c-1.3,3.9-2,8.2-2,12.8
		c0,4.4,0.7,8.5,2.2,12.2c1.4,3.7,3.5,6.9,6.1,9.5c2.6,2.7,5.7,4.7,9.4,6.2c3.7,1.5,7.8,2.2,12.2,2.2c7.9,0,14.3-2.1,19.3-6.2
		c5-4.1,8.1-10.1,9.1-18h-15.7c-0.5,3.7-1.8,6.6-3.9,8.7c-2.1,2.2-5.1,3.3-9,3.3c-2.5,0-4.7-0.6-6.4-1.7c-1.8-1.1-3.1-2.6-4.2-4.4
		s-1.8-3.8-2.2-6c-0.5-2.2-0.7-4.4-0.7-6.5c0-2.2,0.2-4.4,0.7-6.7c0.5-2.2,1.2-4.3,2.3-6.2c1.1-1.9,2.5-3.4,4.3-4.6
		c1.8-1.2,3.9-1.8,6.5-1.8C196.9,37.7,200.9,41.1,202,47.8"/>
	<path class="st1" d="M142.3,52.5h-38.2c0.3-2.7,0.9-5.3,1.9-7.8s2.2-4.8,3.8-6.7c1.6-1.9,3.5-3.5,5.8-4.7s4.9-1.8,7.9-1.8
		c2.9,0,5.5,0.6,7.8,1.8s4.2,2.7,5.8,4.7c1.6,1.9,2.8,4.2,3.7,6.7C141.7,47.2,142.2,49.8,142.3,52.5 M104.1,58.6h45.4
		c0.2-4.1-0.2-8.2-1.1-12.2c-0.9-4-2.4-7.5-4.5-10.6c-2.1-3.1-4.8-5.6-8.2-7.5c-3.4-1.9-7.4-2.9-12.1-2.9c-4.7,0-8.7,0.9-12.1,2.7
		c-3.4,1.8-6.2,4.2-8.3,7.1c-2.1,2.9-3.7,6.3-4.7,10c-1,3.7-1.5,7.5-1.5,11.4c0,4.2,0.5,8.2,1.5,12c1,3.8,2.6,7.1,4.7,9.9
		c2.1,2.9,4.9,5.1,8.3,6.7c3.4,1.6,7.4,2.5,12.1,2.5c7.5,0,13.2-1.8,17.3-5.5c4.1-3.7,6.9-8.8,8.4-15.6h-7.2
		c-1.1,4.6-3.2,8.2-6.2,11c-3,2.7-7.1,4.1-12.4,4.1c-3.4,0-6.4-0.7-8.8-2.2c-2.4-1.4-4.5-3.3-6.1-5.5c-1.6-2.2-2.8-4.7-3.5-7.5
		C104.5,63.9,104.1,61.2,104.1,58.6z"/>
	<path class="st1" d="M43.1,4.5v81.7h7.2V51.7c0.1-2.9,0.6-5.6,1.4-8.1c0.9-2.5,2.1-4.6,3.7-6.4c1.6-1.8,3.5-3.2,5.7-4.2
		c2.2-1,4.8-1.5,7.7-1.5c2.9,0,5.3,0.5,7.3,1.4c1.9,0.9,3.5,2.2,4.6,3.8c1.1,1.6,1.9,3.5,2.4,5.7c0.5,2.2,0.7,4.5,0.7,7v36.8H91v-38
		c0-3.5-0.3-6.7-1-9.5c-0.7-2.8-1.9-5.2-3.5-7.1c-1.7-1.9-3.9-3.4-6.7-4.5c-2.8-1.1-6.2-1.6-10.3-1.6c-4.2,0-8,1.1-11.6,3.3
		c-3.5,2.2-5.9,5.1-7.3,8.6h-0.2V4.5H43.1z"/>
	<path class="st1" d="M250.6,155h42.7c0.3-4.6-0.1-9-1.1-13.2c-1.1-4.2-2.8-7.9-5.2-11.2c-2.4-3.3-5.5-5.9-9.2-7.8
		c-3.7-1.9-8.1-2.9-13.2-2.9c-4.5,0-8.6,0.8-12.3,2.4c-3.7,1.6-6.9,3.8-9.5,6.6c-2.7,2.8-4.7,6.1-6.2,9.9c-1.4,3.8-2.2,7.9-2.2,12.4
		c0,4.6,0.7,8.8,2.1,12.6c1.4,3.8,3.4,7.1,6,9.8c2.6,2.7,5.8,4.9,9.5,6.3c3.7,1.5,7.9,2.2,12.6,2.2c6.7,0,12.4-1.5,17.2-4.6
		c4.7-3,8.2-8.1,10.5-15.2h-14.3c-0.5,1.8-2,3.6-4.3,5.2c-2.4,1.6-5.2,2.5-8.5,2.5c-4.6,0-8.1-1.2-10.5-3.5
		C252.1,164.1,250.8,160.2,250.6,155 M277,144.7h-26.4c0.1-1.1,0.3-2.4,0.7-3.9c0.4-1.4,1.1-2.8,2.2-4.1c1-1.3,2.4-2.4,4.1-3.3
		c1.7-0.9,3.9-1.3,6.5-1.3c4,0,6.9,1.1,8.9,3.2C274.9,137.4,276.2,140.6,277,144.7z"/>
	<path class="st1" d="M192.4,135.9c2-2.1,5-3.2,9-3.2c3.9,0,6.6,1.2,8.1,3.6c1.5,2.4,2.3,6,2.3,10.9v33.4H228v-36.4
		c0-3.7-0.3-7-1-10c-0.6-3-1.8-5.6-3.4-7.7c-1.6-2.1-3.8-3.7-6.6-4.9c-2.8-1.2-6.3-1.8-10.7-1.8c-3.4,0-6.8,0.8-10.1,2.3
		c-1.4,0.7-2.8,1.5-4,2.6V135.9z"/>
	<path class="st1" d="M188.7,180.6L188.7,180.6L188.7,180.6l0.2,0v-60h-11.5c-0.3,2.3-1,4.8-2.1,6.3c-1.8,2.5-6.1,4.2-9.2,4.1v9.1
		h7.2v40.5L188.7,180.6L188.7,180.6z"/>
	<path class="st1" d="M104,151.1c0,4.7,0.7,9,2.2,12.8c1.4,3.8,3.5,7.1,6.2,9.8c2.7,2.7,5.9,4.8,9.6,6.2c3.7,1.4,7.9,2.2,12.6,2.2
		s8.9-0.7,12.6-2.2c3.8-1.4,7-3.5,9.7-6.2c2.7-2.7,4.7-6,6.2-9.8c1.4-3.8,2.2-8.1,2.2-12.8c0-4.7-0.7-9-2.2-12.9
		c-1.4-3.9-3.5-7.1-6.2-9.8c-2.7-2.7-5.9-4.8-9.7-6.3c-3.8-1.5-8-2.2-12.6-2.2s-8.8,0.7-12.6,2.2c-3.7,1.5-6.9,3.6-9.6,6.3
		c-2.7,2.7-4.7,6-6.2,9.8C104.8,142.1,104,146.4,104,151.1 M120.3,151.1c0-2.4,0.2-4.7,0.7-7c0.5-2.3,1.2-4.3,2.3-6.1
		c1.1-1.8,2.6-3.2,4.4-4.3c1.8-1.1,4.1-1.7,6.9-1.7c2.7,0,5.1,0.6,6.9,1.7c1.9,1.1,3.4,2.5,4.5,4.3c1.1,1.8,1.9,3.8,2.3,6.1
		s0.7,4.6,0.7,7c0,2.4-0.2,4.7-0.7,6.9s-1.2,4.3-2.3,6.1c-1.1,1.8-2.6,3.2-4.5,4.3c-1.9,1.1-4.2,1.6-6.9,1.6c-2.7,0-5-0.5-6.9-1.6
		c-1.8-1.1-3.3-2.5-4.4-4.3c-1.1-1.8-1.9-3.8-2.3-6.1C120.5,155.8,120.3,153.5,120.3,151.1z"/>
	<path class="st1" d="M99.7,127.6v-6.1H88v-5.1c0-1.6,0-3.1,0.1-4.5c0.1-1.4,0.4-2.6,0.9-3.6c0.5-1,1.3-1.8,2.3-2.5
		c1.1-0.6,2.6-0.9,4.6-0.9c0.8,0,1.7,0.1,2.5,0.2c0.8,0.1,1.8,0.2,2.7,0.4v-6.2c-1.1-0.2-2.2-0.3-3.1-0.3c-0.9-0.1-1.9-0.1-3-0.1
		c-2.9,0-5.3,0.4-7.1,1.3c-1.9,0.8-3.3,2-4.4,3.5c-1.1,1.5-1.8,3.4-2.2,5.5c-0.4,2.1-0.6,4.5-0.6,7v5.4H70.8v6.1h10.1v52.9H88v-52.9
		H99.7z"/>
	<path class="st1" d="M43,119.9c-4.5,0-8.5,0.8-12,2.5c-3.5,1.7-6.4,3.9-8.7,6.7c-2.4,2.8-4.2,6.1-5.4,9.9
		c-1.2,3.8-1.8,7.8-1.8,12.1c0,4.3,0.6,8.3,1.8,12.1s3,7.1,5.4,9.9c2.4,2.8,5.3,5.1,8.7,6.7c3.5,1.6,7.5,2.5,12,2.5s8.5-0.8,12-2.5
		c3.5-1.6,6.4-3.9,8.7-6.7c2.4-2.8,4.2-6.1,5.4-9.9c1.2-3.8,1.8-7.8,1.8-12.1c0-4.3-0.6-8.3-1.8-12.1c-1.2-3.8-3-7.1-5.4-9.9
		c-2.4-2.8-5.3-5.1-8.7-6.7C51.5,120.7,47.5,119.9,43,119.9 M43,125.9c3.4,0,6.4,0.7,9,2.2c2.6,1.4,4.7,3.4,6.5,5.7
		c1.7,2.4,3,5.1,3.9,8.1c0.9,3,1.3,6.1,1.3,9.2c0,3.1-0.4,6.2-1.3,9.2c-0.9,3-2.2,5.7-3.9,8.1c-1.7,2.4-3.9,4.3-6.5,5.7
		c-2.6,1.4-5.6,2.2-9,2.2s-6.4-0.7-9-2.2c-2.6-1.4-4.7-3.4-6.5-5.7c-1.7-2.4-3-5.1-3.9-8.1c-0.9-3-1.3-6.1-1.3-9.2
		c0-3.1,0.4-6.2,1.3-9.2c0.9-3,2.2-5.7,3.9-8.1c1.7-2.4,3.9-4.3,6.5-5.7C36.6,126.7,39.6,125.9,43,125.9z"/>
	<path class="st1" d="M24,27.1V9.4h-7.2v17.7H6.5v6.1h10.3v40.4c-0.1,5,0.8,8.5,2.7,10.3c1.9,1.9,5.3,2.8,10.1,2.8
		c1.1,0,2.1,0,3.2-0.1c1.1-0.1,2.1-0.1,3.2-0.1v-6.1c-2.1,0.2-4.1,0.3-6.2,0.3c-2.6-0.2-4.2-0.9-4.9-2.2c-0.6-1.3-1-3.2-1-5.5V33.2
		h12v-6.1H24z"/>
</g>
</svg>
