<?xml version="1.0" encoding="utf-8"?>
<!-- Generator: Adobe Illustrator 25.1.0, SVG Export Plug-In . SVG Version: 6.00 Build 0)  -->
<svg version="1.1" id="Layer_1" xmlns="http://www.w3.org/2000/svg" xmlns:xlink="http://www.w3.org/1999/xlink" x="0px" y="0px"
	 viewBox="0 0 172.1 85.1" style="enable-background:new 0 0 172.1 85.1;" xml:space="preserve">
<style type="text/css">
	.st0{fill:#EB4048;}
	.st1{fill:#565656;}
</style>
<g>
	<path class="st0" d="M148.3,32.8h-5.7c0.1,1.5,0.4,2.7,1,3.6c0.6,1,1.4,1.7,2.3,2.3c0.9,0.6,2,1,3.2,1.3c1.2,0.3,2.4,0.4,3.7,0.4
		c1.2,0,2.4-0.1,3.6-0.4c1.2-0.2,2.2-0.6,3.2-1.2s1.7-1.4,2.2-2.3c0.6-1,0.9-2.2,0.9-3.6c0-1-0.2-1.9-0.6-2.5
		c-0.4-0.7-0.9-1.3-1.6-1.7c-0.6-0.5-1.4-0.8-2.2-1.1c-0.8-0.3-1.7-0.5-2.5-0.7c-0.8-0.2-1.7-0.4-2.5-0.5c-0.8-0.2-1.5-0.4-2.2-0.6
		s-1.1-0.5-1.5-0.8c-0.4-0.3-0.6-0.8-0.6-1.3c0-0.4,0.1-0.8,0.3-1.1c0.2-0.3,0.5-0.5,0.8-0.6c0.3-0.1,0.7-0.2,1.1-0.3
		s0.8-0.1,1.1-0.1c1.1,0,2,0.2,2.8,0.6c0.8,0.4,1.2,1.2,1.3,2.3h5.7c-0.1-1.3-0.5-2.5-1-3.3c-0.6-0.9-1.3-1.6-2.2-2.1
		c-0.9-0.5-1.9-0.9-3-1.1c-1.1-0.2-2.2-0.3-3.4-0.3c-1.2,0-2.3,0.1-3.4,0.3c-1.1,0.2-2.1,0.6-3,1.1c-0.9,0.5-1.6,1.2-2.2,2.1
		c-0.5,0.9-0.8,2-0.8,3.4c0,1,0.2,1.8,0.6,2.4c0.4,0.7,0.9,1.2,1.6,1.6c0.6,0.4,1.4,0.8,2.2,1c0.8,0.3,1.7,0.5,2.5,0.7
		c2.1,0.4,3.8,0.9,5,1.3c1.2,0.4,1.8,1.1,1.8,2c0,0.5-0.1,1-0.4,1.3c-0.3,0.4-0.6,0.6-0.9,0.8c-0.4,0.2-0.8,0.4-1.3,0.5
		s-0.9,0.1-1.3,0.1c-0.6,0-1.2-0.1-1.7-0.2c-0.5-0.1-1-0.4-1.4-0.7c-0.4-0.3-0.8-0.7-1-1.1C148.5,34,148.3,33.5,148.3,32.8"/>
	<path class="st0" d="M126.4,32.8h-5.7c0.1,1.5,0.4,2.7,1,3.6c0.6,1,1.4,1.7,2.3,2.3c0.9,0.6,2,1,3.2,1.3c1.2,0.3,2.4,0.4,3.7,0.4
		c1.2,0,2.4-0.1,3.6-0.4c1.2-0.2,2.2-0.6,3.2-1.2s1.7-1.4,2.2-2.3c0.6-1,0.9-2.2,0.9-3.6c0-1-0.2-1.9-0.6-2.5
		c-0.4-0.7-0.9-1.3-1.6-1.7c-0.6-0.5-1.4-0.8-2.2-1.1c-0.8-0.3-1.7-0.5-2.5-0.7c-0.8-0.2-1.7-0.4-2.5-0.5c-0.8-0.2-1.5-0.4-2.2-0.6
		s-1.1-0.5-1.5-0.8c-0.4-0.3-0.6-0.8-0.6-1.3c0-0.4,0.1-0.8,0.3-1.1c0.2-0.3,0.5-0.5,0.8-0.6c0.3-0.1,0.7-0.2,1.1-0.3
		s0.8-0.1,1.1-0.1c1.1,0,2,0.2,2.8,0.6c0.8,0.4,1.2,1.2,1.3,2.3h5.7c-0.1-1.3-0.5-2.5-1-3.3c-0.6-0.9-1.3-1.6-2.2-2.1
		c-0.9-0.5-1.9-0.9-3-1.1c-1.1-0.2-2.2-0.3-3.4-0.3c-1.2,0-2.3,0.1-3.4,0.3c-1.1,0.2-2.1,0.6-3,1.1c-0.9,0.5-1.6,1.2-2.2,2.1
		c-0.5,0.9-0.8,2-0.8,3.4c0,1,0.2,1.8,0.6,2.4c0.4,0.7,0.9,1.2,1.6,1.6c0.6,0.4,1.4,0.8,2.2,1c0.8,0.3,1.7,0.5,2.5,0.7
		c2.1,0.4,3.8,0.9,5,1.3c1.2,0.4,1.8,1.1,1.8,2c0,0.5-0.1,1-0.4,1.3c-0.3,0.4-0.6,0.6-0.9,0.8c-0.4,0.2-0.8,0.4-1.3,0.5
		c-0.5,0.1-0.9,0.1-1.3,0.1c-0.6,0-1.2-0.1-1.7-0.2c-0.5-0.1-1-0.4-1.4-0.7c-0.4-0.3-0.8-0.7-1-1.1C126.5,34,126.4,33.5,126.4,32.8"
		/>
	<path class="st0" d="M98.6,24.9h6c0.1-1.2,0.5-2,1.2-2.5c0.7-0.5,1.6-0.8,2.8-0.8c0.5,0,1,0,1.5,0.1c0.5,0.1,0.9,0.2,1.2,0.4
		c0.4,0.2,0.6,0.5,0.8,0.9c0.2,0.4,0.3,0.9,0.3,1.5c0,0.6-0.2,1.1-0.5,1.4c-0.4,0.3-0.9,0.6-1.6,0.7c-0.7,0.2-1.4,0.3-2.3,0.4
		s-1.7,0.2-2.6,0.3c-0.9,0.1-1.8,0.3-2.7,0.6c-0.9,0.2-1.7,0.6-2.3,1.1c-0.7,0.5-1.2,1.1-1.7,1.9c-0.4,0.8-0.7,1.8-0.7,3
		c0,1.1,0.2,2.1,0.6,2.9c0.4,0.8,0.9,1.5,1.6,2c0.7,0.5,1.5,0.9,2.3,1.2c0.9,0.3,1.9,0.4,2.9,0.4c1.3,0,2.7-0.2,3.9-0.6
		c1.3-0.4,2.4-1.1,3.4-2.1c0,0.4,0.1,0.7,0.1,1.1c0.1,0.3,0.2,0.7,0.3,1h6c-0.3-0.4-0.5-1.1-0.6-2c-0.1-0.9-0.2-1.8-0.2-2.8V23.8
		c0-1.3-0.3-2.4-0.9-3.2c-0.6-0.8-1.3-1.4-2.3-1.9c-0.9-0.4-1.9-0.7-3.1-0.9c-1.1-0.2-2.2-0.2-3.3-0.2c-1.2,0-2.4,0.1-3.6,0.4
		s-2.3,0.6-3.2,1.2c-1,0.6-1.7,1.3-2.4,2.2C99,22.3,98.7,23.5,98.6,24.9 M112.3,29.3v2.2c0,0.3,0,0.8-0.1,1.3
		c-0.1,0.6-0.3,1.1-0.6,1.7c-0.3,0.5-0.8,1-1.4,1.4c-0.6,0.4-1.6,0.6-2.7,0.6c-0.5,0-0.9,0-1.4-0.1c-0.4-0.1-0.8-0.2-1.2-0.4
		c-0.3-0.2-0.6-0.5-0.8-0.9c-0.2-0.4-0.3-0.8-0.3-1.3c0-0.6,0.1-1,0.3-1.4c0.2-0.4,0.5-0.7,0.8-0.9c0.3-0.2,0.7-0.4,1.1-0.6
		c0.4-0.1,0.9-0.3,1.3-0.3c0.5-0.1,1-0.2,1.4-0.2c0.5-0.1,0.9-0.1,1.4-0.2c0.4-0.1,0.8-0.2,1.2-0.3
		C111.8,29.7,112.1,29.5,112.3,29.3"/>
	<rect x="89.3" y="9.9" class="st0" width="6" height="30"/>
	<path class="st0" d="M81,25.8h5.8c-0.1-1.4-0.4-2.6-1-3.6c-0.6-1-1.3-1.9-2.3-2.6c-0.9-0.7-2-1.2-3.2-1.5s-2.4-0.5-3.7-0.5
		c-1.8,0-3.3,0.3-4.7,0.9c-1.4,0.6-2.5,1.4-3.5,2.5c-1,1-1.7,2.3-2.2,3.7c-0.5,1.4-0.7,3-0.7,4.7c0,1.6,0.3,3.1,0.8,4.5
		c0.5,1.4,1.3,2.5,2.2,3.5c1,1,2.1,1.7,3.5,2.3c1.4,0.5,2.8,0.8,4.5,0.8c2.9,0,5.2-0.8,7.1-2.3c1.8-1.5,3-3.7,3.4-6.6h-5.7
		c-0.2,1.3-0.7,2.4-1.4,3.2C79,35.6,77.9,36,76.5,36c-0.9,0-1.7-0.2-2.4-0.6c-0.6-0.4-1.2-1-1.5-1.6c-0.4-0.7-0.6-1.4-0.8-2.2
		c-0.2-0.8-0.3-1.6-0.3-2.4c0-0.8,0.1-1.6,0.3-2.5c0.2-0.8,0.5-1.6,0.9-2.3c0.4-0.7,0.9-1.2,1.6-1.7c0.6-0.4,1.4-0.6,2.4-0.6
		C79.2,22.1,80.6,23.3,81,25.8"/>
	<path class="st0" d="M59.1,27.6h-14c0.1-1,0.3-1.9,0.7-2.9c0.4-0.9,0.8-1.8,1.4-2.5c0.6-0.7,1.3-1.3,2.1-1.7
		c0.8-0.4,1.8-0.6,2.9-0.6c1.1,0,2,0.2,2.9,0.6c0.8,0.4,1.6,1,2.1,1.7c0.6,0.7,1,1.5,1.4,2.5C58.9,25.6,59.1,26.5,59.1,27.6
		 M45.1,29.8h16.7c0.1-1.5-0.1-3-0.4-4.5c-0.3-1.5-0.9-2.8-1.7-3.9c-0.8-1.1-1.8-2-3-2.7c-1.2-0.7-2.7-1.1-4.4-1.1
		c-1.7,0-3.2,0.3-4.4,1c-1.2,0.7-2.3,1.5-3,2.6c-0.8,1.1-1.4,2.3-1.7,3.7c-0.4,1.4-0.6,2.8-0.6,4.2c0,1.5,0.2,3,0.6,4.4
		c0.4,1.4,1,2.6,1.7,3.6c0.8,1,1.8,1.9,3,2.5c1.2,0.6,2.7,0.9,4.4,0.9c2.7,0,4.9-0.7,6.4-2c1.5-1.3,2.5-3.2,3.1-5.7h-2.6
		c-0.4,1.7-1.2,3-2.3,4c-1.1,1-2.6,1.5-4.5,1.5c-1.3,0-2.3-0.3-3.2-0.8c-0.9-0.5-1.6-1.2-2.2-2c-0.6-0.8-1-1.7-1.3-2.7
		C45.3,31.7,45.1,30.7,45.1,29.8"/>
	<path class="st0" d="M22.7,9.9v30h2.6V27.3c0-1.1,0.2-2,0.5-3c0.3-0.9,0.8-1.7,1.3-2.3c0.6-0.7,1.3-1.2,2.1-1.6
		c0.8-0.4,1.8-0.6,2.8-0.6c1.1,0,2,0.2,2.7,0.5s1.3,0.8,1.7,1.4c0.4,0.6,0.7,1.3,0.9,2.1c0.2,0.8,0.3,1.7,0.3,2.6v13.5h2.6V26
		c0-1.3-0.1-2.4-0.4-3.5s-0.7-1.9-1.3-2.6c-0.6-0.7-1.4-1.3-2.5-1.7c-1-0.4-2.3-0.6-3.8-0.6c-1.5,0-3,0.4-4.2,1.2
		c-1.3,0.8-2.2,1.9-2.7,3.2h-0.1v-12H22.7z"/>
	<path class="st0" d="M98.9,65.1h15.6c0.1-1.7,0-3.3-0.4-4.8c-0.4-1.5-1-2.9-1.9-4.1c-0.9-1.2-2-2.2-3.4-2.9c-1.4-0.7-3-1.1-4.8-1.1
		c-1.7,0-3.2,0.3-4.5,0.9c-1.4,0.6-2.5,1.4-3.5,2.4c-1,1-1.7,2.2-2.3,3.6c-0.5,1.4-0.8,2.9-0.8,4.5c0,1.7,0.3,3.2,0.8,4.6
		c0.5,1.4,1.3,2.6,2.2,3.6c1,1,2.1,1.8,3.5,2.3c1.4,0.5,2.9,0.8,4.6,0.8c2.5,0,4.6-0.6,6.3-1.7c1.7-1.1,3-3,3.9-5.6h-5.2
		c-0.2,0.7-0.7,1.3-1.6,1.9c-0.9,0.6-1.9,0.9-3.1,0.9c-1.7,0-3-0.4-3.9-1.3C99.4,68.5,99,67.1,98.9,65.1 M108.6,61.4h-9.7
		c0-0.4,0.1-0.9,0.3-1.4s0.4-1,0.8-1.5c0.4-0.5,0.9-0.9,1.5-1.2c0.6-0.3,1.4-0.5,2.4-0.5c1.5,0,2.5,0.4,3.3,1.2
		C107.8,58.7,108.3,59.9,108.6,61.4"/>
	<path class="st0" d="M77.5,58.1c0.7-0.8,1.8-1.2,3.3-1.2c1.4,0,2.4,0.4,3,1.3c0.6,0.9,0.8,2.2,0.8,4v12.3h6V61.2
		c0-1.3-0.1-2.6-0.4-3.7c-0.2-1.1-0.6-2-1.2-2.8c-0.6-0.8-1.4-1.4-2.4-1.8c-1-0.4-2.3-0.7-3.9-0.7c-1.3,0-2.5,0.3-3.7,0.9
		c-0.5,0.3-1,0.6-1.5,1V58.1z"/>
	<path d="M76.2,74.5L76.2,74.5L76.2,74.5L76.2,74.5l0.1-22H72c-0.1,0.8-0.4,1.8-0.8,2.3c-0.6,0.9-2.2,1.5-3.4,1.5v3.3h2.6v14.9
		L76.2,74.5L76.2,74.5z"/>
	<path d="M45.1,63.7c0,1.7,0.3,3.3,0.8,4.7c0.5,1.4,1.3,2.6,2.3,3.6c1,1,2.2,1.8,3.5,2.3c1.4,0.5,2.9,0.8,4.6,0.8
		c1.7,0,3.3-0.3,4.6-0.8c1.4-0.5,2.6-1.3,3.5-2.3c1-1,1.7-2.2,2.3-3.6c0.5-1.4,0.8-3,0.8-4.7s-0.3-3.3-0.8-4.7
		c-0.5-1.4-1.3-2.6-2.3-3.6c-1-1-2.2-1.8-3.5-2.3c-1.4-0.5-2.9-0.8-4.6-0.8c-1.7,0-3.2,0.3-4.6,0.8c-1.4,0.5-2.5,1.3-3.5,2.3
		c-1,1-1.7,2.2-2.3,3.6C45.4,60.4,45.1,62,45.1,63.7 M51.1,63.7c0-0.9,0.1-1.7,0.3-2.6s0.5-1.6,0.9-2.2c0.4-0.6,0.9-1.2,1.6-1.6
		c0.7-0.4,1.5-0.6,2.5-0.6s1.9,0.2,2.5,0.6c0.7,0.4,1.2,0.9,1.6,1.6c0.4,0.6,0.7,1.4,0.9,2.2s0.3,1.7,0.3,2.6c0,0.9-0.1,1.7-0.3,2.5
		c-0.2,0.8-0.5,1.6-0.9,2.2c-0.4,0.7-1,1.2-1.6,1.6c-0.7,0.4-1.5,0.6-2.5,0.6s-1.8-0.2-2.5-0.6c-0.7-0.4-1.2-0.9-1.6-1.6
		c-0.4-0.7-0.7-1.4-0.9-2.2C51.1,65.4,51.1,64.6,51.1,63.7"/>
	<path class="st0" d="M43.5,55.1v-2.2h-4.3V51c0-0.6,0-1.1,0-1.6s0.1-0.9,0.3-1.3c0.2-0.4,0.5-0.7,0.9-0.9c0.4-0.2,1-0.3,1.7-0.3
		c0.3,0,0.6,0,0.9,0.1s0.6,0.1,1,0.1v-2.3c-0.4-0.1-0.8-0.1-1.1-0.1c-0.3,0-0.7,0-1.1,0c-1.1,0-1.9,0.2-2.6,0.5
		c-0.7,0.3-1.2,0.7-1.6,1.3c-0.4,0.6-0.7,1.2-0.8,2c-0.1,0.8-0.2,1.6-0.2,2.6v2h-3.7v2.2h3.7v19.4h2.6V55.1H43.5z"/>
	<path class="st0" d="M22.7,52.3c-1.7,0-3.1,0.3-4.4,0.9c-1.3,0.6-2.3,1.4-3.2,2.5c-0.9,1-1.5,2.2-2,3.6c-0.4,1.4-0.7,2.9-0.7,4.4
		s0.2,3,0.7,4.4c0.4,1.4,1.1,2.6,2,3.6c0.9,1,1.9,1.9,3.2,2.5c1.3,0.6,2.7,0.9,4.4,0.9c1.6,0,3.1-0.3,4.4-0.9
		c1.3-0.6,2.3-1.4,3.2-2.5c0.9-1,1.5-2.2,2-3.6c0.4-1.4,0.7-2.9,0.7-4.4s-0.2-3-0.7-4.4c-0.4-1.4-1.1-2.6-2-3.6s-1.9-1.9-3.2-2.5
		C25.8,52.6,24.4,52.3,22.7,52.3 M22.7,54.5c1.3,0,2.4,0.3,3.3,0.8c1,0.5,1.7,1.2,2.4,2.1c0.6,0.9,1.1,1.9,1.4,3
		c0.3,1.1,0.5,2.2,0.5,3.4c0,1.1-0.2,2.3-0.5,3.4c-0.3,1.1-0.8,2.1-1.4,3c-0.6,0.9-1.4,1.6-2.4,2.1c-1,0.5-2.1,0.8-3.3,0.8
		c-1.3,0-2.4-0.3-3.3-0.8c-1-0.5-1.7-1.2-2.4-2.1c-0.6-0.9-1.1-1.9-1.4-3c-0.3-1.1-0.5-2.2-0.5-3.4c0-1.1,0.2-2.3,0.5-3.4
		c0.3-1.1,0.8-2.1,1.4-3c0.6-0.9,1.4-1.6,2.4-2.1C20.4,54.8,21.5,54.5,22.7,54.5"/>
	<path class="st0" d="M15.7,18.2v-6.5h-2.6v6.5H9.3v2.2h3.8v14.8c0,1.8,0.3,3.1,1,3.8c0.7,0.7,1.9,1,3.7,1c0.4,0,0.8,0,1.2,0
		s0.8,0,1.2,0v-2.2c-0.8,0.1-1.5,0.1-2.3,0.1c-1-0.1-1.5-0.3-1.8-0.8c-0.2-0.5-0.4-1.2-0.4-2V20.5h4.4v-2.2H15.7z"/>
</g>
</svg>
