<?xml version="1.0" encoding="utf-8"?>
<!-- Generator: Adobe Illustrator 25.1.0, SVG Export Plug-In . SVG Version: 6.00 Build 0)  -->
<svg version="1.1" id="Layer_1" xmlns="http://www.w3.org/2000/svg" xmlns:xlink="http://www.w3.org/1999/xlink" x="0px" y="0px"
	 viewBox="0 0 411.4 324.5" style="enable-background:new 0 0 411.4 324.5;" xml:space="preserve">
<style type="text/css">
	.st0{fill:#FFFFFF;}
	.st1{fill:#231F20;}
</style>
<g>
	<path class="st0" d="M397,296.4h0.3v0h0.8V24.5h-52.2c-1.5,10.2-4.7,21.7-9.6,28.6c-8,11.3-27.5,19-41.6,18.6v41.1h32.4v183.5
		L397,296.4L397,296.4z"/>
	<path class="st0" d="M13.3,162.8c0,21.4,3.3,40.8,9.8,58c6.6,17.3,15.9,32,28,44.3c12.1,12.3,26.6,21.7,43.5,28.2
		c16.9,6.6,35.9,9.8,57,9.8c21.1,0,40.1-3.3,57.2-9.8c17.1-6.6,31.7-16,43.8-28.2c12.1-12.3,21.4-27,28-44.3
		c6.6-17.3,9.8-36.6,9.8-58c0-21.4-3.3-40.8-9.8-58.3c-6.6-17.4-15.9-32.3-28-44.6c-12.1-12.3-26.7-21.8-43.8-28.5
		c-17.1-6.7-36.2-10.1-57.2-10.1c-21.1,0-40.1,3.4-57,10.1c-16.9,6.7-31.4,16.2-43.5,28.5C39,72.2,29.7,87,23.1,104.5
		C16.6,121.9,13.3,141.3,13.3,162.8 M86.9,162.8c0-10.7,1-21.2,3.1-31.6c2.1-10.4,5.6-19.5,10.6-27.5c5-7.9,11.7-14.4,19.9-19.4
		c8.3-5,18.7-7.5,31.1-7.5c12.4,0,22.9,2.5,31.3,7.5c8.5,5,15.2,11.5,20.2,19.4c5,7.9,8.5,17.1,10.6,27.5
		c2.1,10.4,3.1,20.9,3.1,31.6c0,10.7-1,21.2-3.1,31.3c-2.1,10.2-5.6,19.3-10.6,27.5c-5,8.1-11.7,14.6-20.2,19.4
		c-8.5,4.8-18.9,7.3-31.3,7.3c-12.4,0-22.8-2.4-31.1-7.3c-8.3-4.8-14.9-11.3-19.9-19.4c-5-8.1-8.5-17.3-10.6-27.5
		C87.9,183.9,86.9,173.5,86.9,162.8z"/>
</g>
</svg>
