<?xml version="1.0" encoding="utf-8"?>
<!-- Generator: Adobe Illustrator 25.1.0, SVG Export Plug-In . SVG Version: 6.00 Build 0)  -->
<svg version="1.1" id="Layer_1" xmlns="http://www.w3.org/2000/svg" xmlns:xlink="http://www.w3.org/1999/xlink" x="0px" y="0px"
	 viewBox="0 0 478 355.9" style="enable-background:new 0 0 478 355.9;" xml:space="preserve">
<style type="text/css">
	.st0{fill:#FFFFFF;}
	.st1{fill:#231F20;}
</style>
<g>
	<path class="st0" d="M340.8,326.7v11.7h11.7v-11.7H340.8z M331.5,321.1h-8.9c-0.8,3.6-2.4,6.3-4.8,8c-2.4,1.8-5.6,2.6-9.4,2.6
		c-3,0-5.5-0.5-7.7-1.5c-2.2-1-4-2.3-5.4-4c-1.4-1.7-2.4-3.6-3.1-5.7c-0.6-2.2-0.9-4.4-0.8-6.8h41c0.1-3.3-0.2-6.8-0.9-10.5
		c-0.7-3.7-2.1-7.1-4-10.2c-1.9-3.1-4.5-5.7-7.7-7.7c-3.2-2-7.2-3-12.1-3c-3.7,0-7.2,0.7-10.3,2.1c-3.1,1.4-5.9,3.4-8.1,5.9
		c-2.3,2.5-4.1,5.5-5.3,9c-1.3,3.5-1.9,7.3-1.9,11.4c0.1,4.2,0.8,8,1.9,11.5c1.1,3.5,2.7,6.6,4.9,9.1c2.2,2.5,4.9,4.5,8.1,5.9
		c3.2,1.4,7,2.1,11.4,2.1c6.2,0,11.4-1.6,15.5-4.7C327.7,331.9,330.3,327.3,331.5,321.1z M322.9,305.9h-31.4c0.1-2.1,0.6-4.1,1.4-6
		c0.8-1.9,1.8-3.5,3.2-4.9c1.3-1.4,2.9-2.5,4.8-3.3c1.9-0.8,4-1.2,6.3-1.2c2.3,0,4.3,0.4,6.2,1.2c1.9,0.8,3.5,1.9,4.9,3.3
		c1.4,1.4,2.5,3,3.3,4.9C322.2,301.8,322.7,303.8,322.9,305.9z M221.6,283.8v54.7h9v-30.9c0-2.5,0.3-4.7,1-6.8
		c0.7-2.1,1.7-3.9,3-5.5c1.3-1.6,3-2.8,5-3.6c2-0.8,4.4-1.3,7.1-1.3c3.5,0,6.2,1,8.1,3c2,2,3,4.7,3,8v37h9v-36c0-3-0.3-5.7-0.9-8.1
		c-0.6-2.4-1.6-4.5-3.1-6.3c-1.5-1.8-3.4-3.1-5.8-4.1c-2.4-1-5.4-1.5-9-1.5c-8.1,0-14,3.3-17.8,9.9h-0.2v-8.7H221.6z M194.2,283.8
		v54.7h9v-54.7H194.2z M203.2,273.9v-11h-9v11H203.2z M166.3,262.9v75.6h9v-75.6H166.3z M102.6,283.8v54.7h9v-30.9
		c0-2.5,0.3-4.7,1-6.8c0.7-2.1,1.7-3.9,3-5.5c1.3-1.6,3-2.8,5-3.6c2-0.8,4.4-1.3,7.1-1.3c3.5,0,6.2,1,8.1,3c2,2,3,4.7,3,8v37h9v-36
		c0-3-0.3-5.7-0.9-8.1c-0.6-2.4-1.6-4.5-3.1-6.3c-1.5-1.8-3.4-3.1-5.8-4.1c-2.4-1-5.4-1.5-9-1.5c-8.1,0-14,3.3-17.8,9.9H111v-8.7
		H102.6z M15,300.7c0,5.1,0.8,10.1,2.3,14.9c1.5,4.8,3.8,9,6.8,12.6c3,3.7,6.8,6.6,11.3,8.7c4.5,2.2,9.8,3.2,15.8,3.2
		c6,0,11.3-1.1,15.8-3.2c4.5-2.2,8.3-5.1,11.3-8.7c3-3.7,5.3-7.9,6.8-12.6c1.5-4.8,2.3-9.7,2.3-14.9c0-5.2-0.8-10.1-2.3-14.9
		c-1.5-4.8-3.8-9-6.8-12.6c-3-3.7-6.8-6.6-11.3-8.8c-4.5-2.2-9.8-3.3-15.8-3.3c-6,0-11.3,1.1-15.8,3.3c-4.5,2.2-8.3,5.1-11.3,8.8
		c-3,3.7-5.3,7.9-6.8,12.6C15.7,290.6,15,295.6,15,300.7z M25,300.7c0-3.8,0.5-7.6,1.5-11.3c1-3.7,2.5-7,4.7-10
		c2.1-3,4.8-5.3,8.1-7.1c3.3-1.8,7.3-2.7,11.9-2.7c4.6,0,8.5,0.9,11.9,2.7c3.3,1.8,6,4.2,8.1,7.1c2.1,3,3.7,6.3,4.7,10
		c1,3.7,1.5,7.5,1.5,11.3c0,3.8-0.5,7.6-1.5,11.3c-1,3.7-2.5,7-4.7,10c-2.1,3-4.8,5.3-8.1,7.1c-3.3,1.8-7.3,2.7-11.9,2.7
		c-4.6,0-8.5-0.9-11.9-2.7c-3.3-1.8-6-4.2-8.1-7.1c-2.1-3-3.7-6.3-4.7-10C25.5,308.3,25,304.5,25,300.7z M369.8,260.1L369.8,260.1
		L369.8,260.1L369.8,260.1L369.8,260.1c-5.5,0-10.4,2.2-13.9,5.8c-3.6,3.6-5.8,8.5-5.8,13.9h0v0v0h0c0,5.4,2.2,10.3,5.8,13.9
		c3.6,3.6,8.5,5.8,13.9,5.8v0h0h0v0c5.4,0,10.3-2.2,13.9-5.8l0,0c3.6-3.6,5.8-8.5,5.8-13.9h0v0v0h0c0-5.4-2.2-10.3-5.8-13.9l0,0
		C380.1,262.3,375.2,260.1,369.8,260.1z M370.7,278.4h-6.2v-7.8h7.4c1.4,0,2.4,0.4,3,1.1c0.6,0.7,0.9,1.6,0.9,2.7
		c0,0.8-0.1,1.5-0.4,2c-0.3,0.5-0.7,0.9-1.1,1.2c-0.5,0.3-1,0.5-1.6,0.6C372,278.3,371.4,278.4,370.7,278.4z M361.5,268.1v22.3h3
		v-9.5h7.2c0.7,0,1.3,0.1,1.7,0.3c0.4,0.2,0.8,0.5,1.1,0.9c0.3,0.4,0.5,0.8,0.6,1.3c0.1,0.5,0.2,1,0.3,1.5c0.1,0.5,0.2,1.1,0.2,1.7
		c0,0.6,0,1.1,0.1,1.6c0,0.5,0.1,0.9,0.1,1.3c0.1,0.4,0.2,0.7,0.4,0.9h3.3c-0.3-0.4-0.5-0.8-0.7-1.3c-0.2-0.5-0.3-1-0.4-1.5
		c-0.1-0.5-0.1-1.1-0.2-1.7c0-0.6-0.1-1.1-0.1-1.7c-0.1-0.5-0.2-1.1-0.3-1.6c-0.1-0.5-0.3-1-0.5-1.4c-0.2-0.4-0.6-0.8-1-1
		c-0.4-0.3-0.9-0.5-1.6-0.6v-0.1c1.4-0.4,2.3-1.1,3-2.1c0.6-1,0.9-2.2,0.9-3.6c0-1.8-0.6-3.2-1.8-4.3c-1.2-1-2.9-1.6-5-1.6H361.5z
		 M369.8,256.6L369.8,256.6L369.8,256.6c6.4,0,12.2,2.6,16.4,6.8v0c4.2,4.2,6.8,10,6.8,16.4h0v0v0h0c0,6.4-2.6,12.2-6.8,16.4h0
		c-4.2,4.2-10,6.8-16.4,6.8v0h0h0v0c-6.4,0-12.2-2.6-16.4-6.8c-4.2-4.2-6.8-10-6.8-16.4h0v0v0h0c0-6.4,2.6-12.2,6.8-16.4
		C357.6,259.2,363.4,256.6,369.8,256.6L369.8,256.6L369.8,256.6z"/>
	<path class="st0" d="M452.1,203.1v11.7h11.7v-11.7H452.1z M417.2,207.6c-3,0-5.4-0.6-7.4-1.9c-2-1.2-3.6-2.9-4.8-4.9
		c-1.2-2-2-4.3-2.5-6.7c-0.5-2.5-0.7-4.9-0.7-7.4c0-2.6,0.3-5.1,0.9-7.5c0.6-2.4,1.6-4.5,2.9-6.4c1.3-1.8,3-3.3,5-4.4
		c2-1.1,4.5-1.6,7.4-1.6c2.8,0,5.2,0.6,7.2,1.7c2,1.1,3.6,2.6,4.8,4.5c1.2,1.9,2.1,4,2.7,6.3c0.6,2.3,0.8,4.7,0.8,7.1
		c0,2.5-0.3,5.1-0.9,7.6c-0.6,2.5-1.5,4.8-2.8,6.8c-1.3,2-2.9,3.6-5,4.9C422.7,207,420.2,207.6,417.2,207.6z M442.4,210.2v-50.1
		h-8.5v7.8h-0.1c-1.6-3-3.9-5.3-6.8-6.8c-2.9-1.5-6.1-2.3-9.5-2.3c-4.7,0-8.7,0.9-12,2.7c-3.2,1.8-5.9,4.1-7.8,6.9
		c-2,2.8-3.4,5.9-4.2,9.3c-0.8,3.4-1.3,6.8-1.3,10c0,3.7,0.5,7.3,1.5,10.6c1,3.4,2.6,6.3,4.6,8.8c2,2.5,4.6,4.5,7.6,6
		c3,1.5,6.6,2.2,10.7,2.2c3.5,0,6.9-0.8,10-2.4c3.1-1.6,5.5-4.1,7-7.5h0.2v3.6c0,3-0.3,5.8-0.9,8.4c-0.6,2.5-1.6,4.7-2.9,6.5
		c-1.3,1.8-3,3.2-5.1,4.2c-2,1-4.6,1.5-7.5,1.5c-1.5,0-3-0.2-4.7-0.5c-1.6-0.3-3.1-0.8-4.5-1.5c-1.4-0.7-2.5-1.6-3.5-2.8
		c-1-1.1-1.5-2.5-1.5-4.1h-9c0.1,3,0.9,5.5,2.3,7.5c1.4,2,3.2,3.7,5.3,5c2.2,1.3,4.6,2.2,7.2,2.8c2.6,0.6,5.2,0.8,7.8,0.8
		c8.7,0,15.2-2.2,19.3-6.7C440.3,225.9,442.4,219.2,442.4,210.2z M331.9,160.2v54.7h9V184c0-2.5,0.3-4.7,1-6.8
		c0.7-2.1,1.7-3.9,3-5.5c1.3-1.6,3-2.8,5-3.6c2-0.8,4.4-1.3,7.1-1.3c3.5,0,6.2,1,8.1,3c2,2,3,4.7,3,8v37h9v-36c0-3-0.3-5.7-0.9-8.1
		c-0.6-2.4-1.6-4.5-3.1-6.3c-1.5-1.8-3.4-3.1-5.8-4.1c-2.4-1-5.4-1.5-9-1.5c-8.1,0-14,3.3-17.8,9.9h-0.2v-8.7H331.9z M304.6,160.2
		v54.7h9v-54.7H304.6z M313.6,150.3v-11h-9v11H313.6z M240.8,160.2v54.7h9V184c0-2.5,0.3-4.7,1-6.8c0.7-2.1,1.7-3.9,3-5.5
		c1.3-1.6,3-2.8,5-3.6c2-0.8,4.4-1.3,7.1-1.3c3.5,0,6.2,1,8.1,3c2,2,3,4.7,3,8v37h9v-36c0-3-0.3-5.7-0.9-8.1
		c-0.6-2.4-1.6-4.5-3.1-6.3c-1.5-1.8-3.4-3.1-5.8-4.1c-2.4-1-5.4-1.5-9-1.5c-8.1,0-14,3.3-17.8,9.9h-0.2v-8.7H240.8z M198.9,160.2
		v54.7h9v-24.3c0-3.5,0.4-6.6,1.1-9.4c0.7-2.7,1.8-5,3.4-6.9c1.6-1.9,3.6-3.4,6.1-4.3c2.5-1,5.6-1.5,9.2-1.5v-9.5
		c-4.9-0.1-8.9,0.8-12.1,3c-3.2,2.1-5.9,5.4-8,9.8h-0.2v-11.5H198.9z M171.8,186.6v9.2c0,1.3-0.3,2.6-1,4.1c-0.6,1.4-1.6,2.8-3,4
		c-1.3,1.2-3.1,2.3-5.2,3.1c-2.1,0.8-4.7,1.2-7.6,1.2c-1.3,0-2.7-0.1-4-0.4c-1.3-0.3-2.4-0.7-3.4-1.4c-1-0.6-1.7-1.5-2.3-2.5
		c-0.6-1-0.9-2.3-0.9-3.8c0-2.3,0.5-4,1.5-5.3c1-1.3,2.3-2.3,4-3c1.6-0.7,3.5-1.2,5.5-1.5c2-0.3,4.1-0.6,6.1-0.8
		c2-0.2,3.9-0.6,5.8-1C169.2,188.1,170.7,187.5,171.8,186.6z M186.4,214.7v-7c-1.1,0.4-2,0.5-2.8,0.5c-1.4,0-2.2-0.5-2.5-1.5
		c-0.2-1-0.4-2.5-0.4-4.7v-28.2c0-3.2-0.6-5.8-1.8-7.7c-1.2-2-2.8-3.5-4.8-4.6c-2-1.1-4.2-1.8-6.6-2.2c-2.4-0.4-4.9-0.5-7.4-0.5
		c-3,0-5.9,0.3-8.7,1c-2.8,0.6-5.2,1.7-7.3,3.1c-2.1,1.4-3.8,3.3-5.1,5.7c-1.3,2.3-2,5.2-2.1,8.6h9c0.2-4,1.6-6.8,4.1-8.2
		c2.5-1.4,5.7-2.2,9.5-2.2c1.4,0,2.8,0.1,4.3,0.3c1.4,0.2,2.8,0.6,3.9,1.3c1.2,0.6,2.1,1.6,2.9,2.8c0.7,1.2,1.1,2.8,1.1,4.8
		c0,1.7-0.5,3-1.5,3.9c-1,0.9-2.3,1.6-4,2c-1.7,0.5-3.7,0.8-5.9,1.1c-2.2,0.2-4.6,0.6-7,1.1c-2.3,0.4-4.6,1-6.8,1.6
		c-2.2,0.6-4.2,1.6-5.9,2.8c-1.7,1.2-3.1,2.8-4.2,4.8c-1.1,2-1.6,4.5-1.6,7.6c0,2.8,0.5,5.1,1.4,7c1,1.9,2.3,3.5,3.9,4.8
		c1.7,1.2,3.6,2.1,5.8,2.6c2.2,0.5,4.5,0.8,7,0.8c3.8,0,7.4-0.7,10.6-2c3.3-1.3,6.2-3.4,8.6-6.4c0,3,0.7,5.1,2.1,6.4
		c1.4,1.3,3.2,2,5.6,2C182.7,216,184.9,215.6,186.4,214.7z M123.4,197.5h-8.9c-0.8,3.6-2.4,6.3-4.8,8c-2.4,1.8-5.6,2.6-9.4,2.6
		c-3,0-5.5-0.5-7.7-1.5c-2.2-1-4-2.3-5.4-4c-1.4-1.7-2.4-3.6-3.1-5.7c-0.6-2.2-0.9-4.4-0.8-6.8h41c0.1-3.3-0.2-6.8-0.9-10.5
		c-0.7-3.7-2.1-7.1-4-10.2c-1.9-3.1-4.5-5.7-7.7-7.7c-3.2-2-7.2-3-12.1-3c-3.7,0-7.2,0.7-10.3,2.1c-3.1,1.4-5.9,3.4-8.1,5.9
		c-2.3,2.5-4.1,5.5-5.3,9c-1.3,3.5-1.9,7.3-1.9,11.4c0.1,4.2,0.8,8,1.9,11.5c1.1,3.5,2.7,6.6,4.9,9.1c2.2,2.5,4.9,4.5,8.1,5.9
		c3.2,1.4,7,2.1,11.4,2.1c6.2,0,11.4-1.6,15.5-4.7C119.6,208.3,122.2,203.7,123.4,197.5z M114.7,182.3H83.3c0.1-2.1,0.6-4.1,1.4-6
		c0.8-1.9,1.8-3.5,3.2-4.9c1.3-1.4,2.9-2.5,4.8-3.3c1.9-0.8,4-1.2,6.3-1.2c2.3,0,4.3,0.4,6.2,1.2c1.9,0.8,3.5,1.9,4.9,3.3
		c1.4,1.4,2.5,3,3.3,4.9C114.1,178.1,114.6,180.2,114.7,182.3z M15,139.3v75.6H65v-8.5H25v-67.1H15z"/>
	<path class="st0" d="M245.9,73.9H237c-0.8,3.6-2.4,6.3-4.8,8c-2.4,1.8-5.6,2.6-9.4,2.6c-3,0-5.5-0.5-7.7-1.5c-2.2-1-4-2.3-5.4-4
		c-1.4-1.7-2.4-3.6-3.1-5.7c-0.6-2.2-0.9-4.4-0.8-6.8h41c0.1-3.3-0.2-6.8-0.9-10.5c-0.7-3.7-2.1-7.1-4-10.2
		c-1.9-3.1-4.5-5.7-7.7-7.7c-3.2-2-7.2-3-12.1-3c-3.7,0-7.2,0.7-10.3,2.1c-3.1,1.4-5.9,3.4-8.1,5.9c-2.3,2.5-4.1,5.5-5.3,9
		c-1.3,3.5-1.9,7.3-1.9,11.4c0.1,4.2,0.8,8,1.9,11.5c1.1,3.5,2.7,6.6,4.9,9.1c2.2,2.5,4.9,4.5,8.1,5.9c3.2,1.4,7,2.1,11.4,2.1
		c6.2,0,11.4-1.6,15.5-4.7C242,84.7,244.7,80,245.9,73.9 M237.2,58.7h-31.4c0.1-2.1,0.6-4.1,1.4-6c0.8-1.9,1.8-3.5,3.2-4.9
		c1.3-1.4,2.9-2.5,4.8-3.3c1.9-0.8,4-1.2,6.3-1.2c2.3,0,4.3,0.4,6.2,1.2c1.9,0.8,3.5,1.9,4.9,3.3c1.4,1.4,2.5,3,3.3,4.9
		C236.6,54.5,237.1,56.5,237.2,58.7z M166.5,91.3l20-54.7h-9.4l-14.9,45.6H162l-15.3-45.6h-10.1l20.3,54.7H166.5z M73.8,64
		c0,4,0.6,7.8,1.7,11.2c1.1,3.5,2.8,6.5,5.1,9c2.3,2.6,5,4.6,8.4,6c3.3,1.4,7.1,2.2,11.4,2.2c4.4,0,8.2-0.7,11.5-2.2
		c3.3-1.4,6-3.5,8.3-6c2.3-2.6,4-5.6,5.1-9c1.1-3.5,1.7-7.2,1.7-11.2c0-4-0.6-7.8-1.7-11.3c-1.1-3.5-2.8-6.5-5.1-9.1
		c-2.3-2.6-5-4.6-8.3-6.1c-3.3-1.5-7.1-2.2-11.5-2.2c-4.3,0-8.1,0.7-11.4,2.2c-3.3,1.5-6.1,3.5-8.4,6.1c-2.3,2.6-4,5.6-5.1,9.1
		C74.3,56.2,73.8,59.9,73.8,64z M83.3,64c0-3.3,0.4-6.3,1.3-8.8c0.9-2.6,2.1-4.7,3.7-6.5c1.6-1.8,3.4-3.1,5.5-4
		c2.1-0.9,4.3-1.4,6.6-1.4c2.3,0,4.5,0.5,6.6,1.4c2.1,0.9,3.9,2.3,5.5,4c1.6,1.8,2.8,3.9,3.7,6.5c0.9,2.6,1.3,5.5,1.3,8.8
		c0,3.3-0.4,6.3-1.3,8.8c-0.9,2.6-2.1,4.7-3.7,6.5c-1.6,1.7-3.4,3.1-5.5,4c-2.1,0.9-4.3,1.4-6.6,1.4c-2.3,0-4.5-0.5-6.6-1.4
		c-2.1-0.9-3.9-2.2-5.5-4c-1.6-1.7-2.8-3.9-3.7-6.5C83.7,70.2,83.3,67.3,83.3,64z M15,15.7v75.6H65v-8.5H25V15.7H15z"/>
</g>
</svg>
