<?xml version="1.0" encoding="utf-8"?>
<!-- Generator: Adobe Illustrator 25.1.0, SVG Export Plug-In . SVG Version: 6.00 Build 0)  -->
<svg version="1.1" id="Layer_1" xmlns="http://www.w3.org/2000/svg" xmlns:xlink="http://www.w3.org/1999/xlink" x="0px" y="0px"
	 viewBox="0 0 50.8 271.2" style="enable-background:new 0 0 50.8 271.2;" xml:space="preserve">
<style type="text/css">
	.st0{fill:#FCFCFC;}
</style>
<g>
	<path class="st0" d="M29.4,23.7H32v-2.6h-2.6V23.7z M28.2,25.8v2c0.8,0.2,1.4,0.5,1.8,1.1c0.4,0.5,0.6,1.2,0.6,2.1
		c0,0.7-0.1,1.2-0.3,1.7c-0.2,0.5-0.5,0.9-0.9,1.2s-0.8,0.5-1.3,0.7c-0.5,0.1-1,0.2-1.5,0.2v-9c-0.7,0-1.5,0-2.3,0.2
		s-1.6,0.5-2.2,0.9c-0.7,0.4-1.2,1-1.7,1.7c-0.4,0.7-0.7,1.6-0.7,2.7c0,0.8,0.2,1.6,0.5,2.3s0.7,1.3,1.3,1.8c0.6,0.5,1.2,0.9,2,1.2
		S25.1,37,26,37s1.8-0.2,2.5-0.4c0.8-0.2,1.5-0.6,2-1.1c0.6-0.5,1-1.1,1.3-1.8s0.5-1.5,0.5-2.5c0-1.4-0.3-2.5-1-3.4
		C30.6,26.6,29.5,26,28.2,25.8 M24.8,27.7v6.9c-0.5,0-0.9-0.1-1.3-0.3s-0.8-0.4-1.1-0.7c-0.3-0.3-0.6-0.6-0.7-1.1
		c-0.2-0.4-0.3-0.9-0.3-1.4s0.1-1,0.3-1.4c0.2-0.4,0.4-0.8,0.7-1.1c0.3-0.3,0.7-0.5,1.1-0.7C23.9,27.8,24.4,27.7,24.8,27.7 M19.9,50
		H32v-2h-6.8c-0.5,0-1-0.1-1.5-0.2c-0.5-0.2-0.9-0.4-1.2-0.7c-0.3-0.3-0.6-0.7-0.8-1.1c-0.2-0.4-0.3-1-0.3-1.6
		c0-0.8,0.2-1.4,0.7-1.8c0.4-0.4,1-0.7,1.8-0.7H32v-2h-7.9c-0.7,0-1.2,0.1-1.8,0.2c-0.5,0.1-1,0.4-1.4,0.7s-0.7,0.8-0.9,1.3
		c-0.2,0.5-0.3,1.2-0.3,2c0,1.8,0.7,3.1,2.2,3.9l0,0H20v2C20,50,19.9,50,19.9,50z M19.9,56.1H32v-2H19.9V56.1z M17.8,54.1h-2.4v2
		h2.4V54.1z M15.3,62.2H32v-2H15.3V62.2z M19.9,76.3H32v-2h-6.8c-0.5,0-1-0.1-1.5-0.2c-0.5-0.2-0.9-0.4-1.2-0.7
		c-0.3-0.3-0.6-0.7-0.8-1.1c-0.2-0.4-0.3-1-0.3-1.6c0-0.8,0.2-1.4,0.7-1.8s1-0.7,1.8-0.7H32v-2h-7.9c-0.7,0-1.2,0.1-1.8,0.2
		c-0.5,0.1-1,0.4-1.4,0.7s-0.7,0.8-0.9,1.3c-0.2,0.5-0.3,1.2-0.3,2c0,1.8,0.7,3.1,2.2,3.9l0,0H20v2C20,76.3,19.9,76.3,19.9,76.3z
		 M23.7,95.7c1.1,0,2.2-0.2,3.3-0.5c1.1-0.3,2-0.8,2.8-1.5s1.5-1.5,1.9-2.5c0.5-1,0.7-2.2,0.7-3.5s-0.2-2.5-0.7-3.5
		s-1.1-1.8-1.9-2.5s-1.7-1.2-2.8-1.5c-1.1-0.3-2.1-0.5-3.3-0.5c-1.1,0-2.2,0.2-3.3,0.5c-1.1,0.3-2,0.8-2.8,1.5s-1.5,1.5-1.9,2.5
		c-0.5,1-0.7,2.2-0.7,3.5s0.2,2.5,0.7,3.5s1.1,1.8,1.9,2.5s1.7,1.2,2.8,1.5C21.4,95.5,22.5,95.7,23.7,95.7 M23.7,93.5
		c-0.8,0-1.7-0.1-2.5-0.3s-1.6-0.6-2.2-1c-0.7-0.5-1.2-1.1-1.6-1.8s-0.6-1.6-0.6-2.6s0.2-1.9,0.6-2.6s0.9-1.3,1.6-1.8s1.4-0.8,2.2-1
		c0.8-0.2,1.6-0.3,2.5-0.3c0.8,0,1.7,0.1,2.5,0.3s1.6,0.6,2.2,1c0.7,0.5,1.2,1.1,1.6,1.8s0.6,1.6,0.6,2.6s-0.2,1.9-0.6,2.6
		s-0.9,1.3-1.6,1.8s-1.4,0.8-2.2,1C25.3,93.3,24.5,93.5,23.7,93.5 M29.4,103.7H32v-2.6h-2.6V103.7z M30.4,111.4
		c0,0.7-0.1,1.2-0.4,1.6s-0.6,0.8-1.1,1.1c-0.4,0.3-0.9,0.5-1.5,0.6c-0.5,0.1-1.1,0.2-1.6,0.2c-0.6,0-1.1-0.1-1.7-0.2
		c-0.5-0.1-1-0.3-1.4-0.6s-0.7-0.7-1-1.1c-0.2-0.4-0.4-1-0.4-1.6s0.1-1.2,0.4-1.6s0.6-0.8,1-1.1s0.9-0.5,1.4-0.6s1-0.2,1.6-0.2
		s1.1,0.1,1.7,0.2s1.1,0.3,1.5,0.6s0.8,0.6,1.1,1.1C30.3,110.2,30.4,110.8,30.4,111.4 M31,105.9H19.9v1.9h1.7l0,0
		c-0.7,0.4-1.2,0.9-1.5,1.5s-0.5,1.3-0.5,2.1c0,1,0.2,1.9,0.6,2.6s0.9,1.3,1.5,1.7s1.3,0.7,2.1,0.9c0.8,0.2,1.5,0.3,2.2,0.3
		c0.8,0,1.6-0.1,2.3-0.3c0.7-0.2,1.4-0.6,1.9-1c0.6-0.5,1-1,1.3-1.7s0.5-1.5,0.5-2.4c0-0.8-0.2-1.5-0.5-2.2
		c-0.4-0.7-0.9-1.2-1.6-1.6l0,0h0.8c0.7,0,1.3,0.1,1.8,0.2c0.6,0.1,1,0.3,1.4,0.6s0.7,0.7,0.9,1.1c0.2,0.5,0.3,1,0.3,1.7
		c0,0.3,0,0.7-0.1,1c-0.1,0.4-0.2,0.7-0.3,1c-0.2,0.3-0.4,0.6-0.6,0.8c-0.2,0.2-0.6,0.3-0.9,0.3v2c0.7,0,1.2-0.2,1.7-0.5
		s0.8-0.7,1.1-1.2s0.5-1,0.6-1.6s0.2-1.2,0.2-1.7c0-1.9-0.5-3.4-1.5-4.3C34.5,106.3,33,105.9,31,105.9 M19.9,130.2H32v-2h-6.8
		c-0.5,0-1-0.1-1.5-0.2c-0.5-0.1-0.9-0.4-1.2-0.7c-0.3-0.3-0.6-0.7-0.8-1.1c-0.2-0.4-0.3-1-0.3-1.6c0-0.8,0.2-1.4,0.7-1.8
		c0.4-0.4,1-0.7,1.8-0.7H32v-2h-7.9c-0.7,0-1.2,0.1-1.8,0.2c-0.5,0.1-1,0.4-1.4,0.7s-0.7,0.8-0.9,1.3c-0.2,0.5-0.3,1.2-0.3,2
		c0,1.8,0.7,3.1,2.2,3.9l0,0H20v2H19.9z M19.9,136.3H32v-2H19.9V136.3z M17.8,134.3h-2.4v2h2.4V134.3z M19.9,150.4H32v-2h-6.8
		c-0.5,0-1-0.1-1.5-0.2c-0.5-0.1-0.9-0.4-1.2-0.7c-0.3-0.3-0.6-0.7-0.8-1.1c-0.2-0.4-0.3-1-0.3-1.6c0-0.8,0.2-1.4,0.7-1.8
		c0.4-0.4,1-0.7,1.8-0.7H32v-2h-7.9c-0.7,0-1.2,0.1-1.8,0.2c-0.5,0.1-1,0.4-1.4,0.7s-0.7,0.8-0.9,1.3c-0.2,0.5-0.3,1.2-0.3,2
		c0,1.8,0.7,3.1,2.2,3.9l0,0H20v2L19.9,150.4L19.9,150.4z M19.9,159.6H32v-2h-5.4c-0.8,0-1.5-0.1-2.1-0.2c-0.6-0.2-1.1-0.4-1.5-0.7
		s-0.7-0.8-1-1.4c-0.2-0.6-0.3-1.2-0.3-2h-2.1c0,1.1,0.2,2,0.7,2.7s1.2,1.3,2.2,1.8l0,0H20v1.8L19.9,159.6L19.9,159.6z M25.8,165.6
		h2c0.3,0,0.6,0.1,0.9,0.2c0.3,0.1,0.6,0.4,0.9,0.7s0.5,0.7,0.7,1.1c0.2,0.5,0.3,1,0.3,1.7c0,0.3,0,0.6-0.1,0.9s-0.2,0.5-0.3,0.7
		c-0.1,0.2-0.3,0.4-0.5,0.5s-0.5,0.2-0.8,0.2c-0.5,0-0.9-0.1-1.2-0.3c-0.3-0.2-0.5-0.5-0.7-0.9s-0.3-0.8-0.3-1.2s-0.1-0.9-0.2-1.3
		c-0.1-0.4-0.1-0.9-0.2-1.3C26.1,166.2,26,165.8,25.8,165.6 M32,162.4h-1.5c0.1,0.2,0.1,0.4,0.1,0.6c0,0.3-0.1,0.5-0.3,0.6
		c-0.2,0.1-0.6,0.1-1,0.1H23c-0.7,0-1.3,0.1-1.7,0.4c-0.4,0.3-0.8,0.6-1,1.1c-0.2,0.4-0.4,0.9-0.5,1.5c-0.1,0.5-0.1,1.1-0.1,1.6
		c0,0.7,0.1,1.3,0.2,1.9c0.1,0.6,0.4,1.1,0.7,1.6c0.3,0.5,0.7,0.8,1.3,1.1c0.5,0.3,1.1,0.4,1.9,0.5v-2c-0.9,0-1.5-0.3-1.8-0.9
		c-0.3-0.6-0.5-1.3-0.5-2.1c0-0.3,0-0.6,0.1-0.9c0-0.3,0.1-0.6,0.3-0.9c0.1-0.3,0.3-0.5,0.6-0.6c0.3-0.2,0.6-0.2,1.1-0.2
		c0.4,0,0.7,0.1,0.9,0.3c0.2,0.2,0.3,0.5,0.4,0.9s0.2,0.8,0.2,1.3c0.1,0.5,0.1,1,0.2,1.6c0.1,0.5,0.2,1,0.4,1.5
		c0.1,0.5,0.3,0.9,0.6,1.3c0.3,0.4,0.6,0.7,1.1,0.9c0.4,0.2,1,0.4,1.7,0.4c0.6,0,1.1-0.1,1.6-0.3c0.4-0.2,0.8-0.5,1.1-0.9
		c0.3-0.4,0.5-0.8,0.6-1.3s0.2-1,0.2-1.5c0-0.8-0.1-1.6-0.4-2.3c-0.3-0.7-0.8-1.4-1.4-1.9c0.7,0,1.1-0.2,1.4-0.5s0.4-0.7,0.4-1.2
		C32.3,163.2,32.2,162.7,32,162.4 M28.2,176.2v2c0.8,0.2,1.4,0.5,1.8,1.1c0.4,0.5,0.6,1.2,0.6,2.1c0,0.7-0.1,1.2-0.3,1.7
		c-0.2,0.5-0.5,0.9-0.9,1.2s-0.8,0.5-1.3,0.7c-0.5,0.1-1,0.2-1.5,0.2v-9c-0.7,0-1.5,0-2.3,0.2s-1.6,0.5-2.2,0.9
		c-0.7,0.4-1.2,1-1.7,1.7c-0.4,0.7-0.7,1.6-0.7,2.7c0,0.8,0.2,1.6,0.5,2.3s0.7,1.3,1.3,1.8c0.6,0.5,1.2,0.9,2,1.2s1.6,0.4,2.5,0.4
		s1.8-0.2,2.5-0.4c0.8-0.2,1.5-0.6,2-1.1c0.6-0.5,1-1.1,1.3-1.8s0.5-1.5,0.5-2.5c0-1.4-0.3-2.5-1-3.4
		C30.6,177.1,29.5,176.6,28.2,176.2 M24.8,178.2v7c-0.5,0-0.9-0.1-1.3-0.3s-0.8-0.4-1.1-0.7c-0.3-0.3-0.6-0.7-0.7-1.1
		c-0.2-0.4-0.3-0.9-0.3-1.4s0.1-1,0.3-1.4c0.2-0.4,0.4-0.8,0.7-1.1c0.3-0.3,0.7-0.5,1.1-0.7C23.9,178.2,24.4,178.2,24.8,178.2
		 M15.3,200.2H32v-11h-1.9v8.8H15.3V200.2z M28.2,208v2c0.8,0.2,1.4,0.5,1.8,1.1c0.4,0.5,0.6,1.2,0.6,2.1c0,0.7-0.1,1.2-0.3,1.7
		c-0.2,0.5-0.5,0.9-0.9,1.2s-0.8,0.5-1.3,0.7c-0.5,0.1-1,0.2-1.5,0.2v-9c-0.7,0-1.5,0-2.3,0.2s-1.6,0.5-2.2,0.9
		c-0.7,0.4-1.2,1-1.7,1.7c-0.4,0.7-0.7,1.6-0.7,2.7c0,0.8,0.2,1.6,0.5,2.3s0.7,1.3,1.3,1.8c0.6,0.5,1.2,0.9,2,1.2s1.6,0.4,2.5,0.4
		s1.8-0.2,2.5-0.4c0.8-0.2,1.5-0.6,2-1.1c0.6-0.5,1-1.1,1.3-1.8s0.5-1.5,0.5-2.5c0-1.4-0.3-2.5-1-3.4
		C30.6,209.1,29.5,208.2,28.2,208 M24.8,209.9v6.9c-0.5,0-0.9-0.1-1.3-0.3s-0.8-0.4-1.1-0.7c-0.3-0.3-0.6-0.7-0.7-1.1
		c-0.2-0.4-0.3-0.9-0.3-1.4s0.1-1,0.3-1.4c0.2-0.4,0.4-0.8,0.7-1.1c0.3-0.3,0.7-0.5,1.1-0.7C23.9,210.1,24.4,210,24.8,209.9
		 M32,225.5l-12.1-4.4v2.1l10.1,3.3l0,0l-10.1,3.4v2.2l12.1-4.4V225.5z M26,246c0.9,0,1.7-0.1,2.5-0.4c0.8-0.2,1.4-0.6,2-1.1
		s1-1.1,1.3-1.8s0.5-1.6,0.5-2.5c0-1-0.2-1.8-0.5-2.5s-0.8-1.3-1.3-1.8c-0.6-0.5-1.2-0.9-2-1.1c-0.8-0.2-1.6-0.4-2.5-0.4
		s-1.7,0.1-2.5,0.4c-0.8,0.2-1.4,0.6-2,1.1s-1,1.1-1.3,1.8s-0.5,1.6-0.5,2.5c0,1,0.2,1.8,0.5,2.5s0.8,1.3,1.3,1.8
		c0.6,0.5,1.2,0.9,2,1.1C24.3,245.9,25.1,246,26,246 M26,243.9c-0.7,0-1.4-0.1-2-0.3s-1-0.5-1.4-0.8s-0.7-0.7-0.9-1.2
		c-0.2-0.5-0.3-0.9-0.3-1.5c0-0.5,0.1-1,0.3-1.5c0.2-0.5,0.5-0.9,0.9-1.2s0.9-0.6,1.4-0.8c0.6-0.2,1.2-0.3,2-0.3
		c0.7,0,1.4,0.1,2,0.3s1,0.5,1.4,0.8s0.7,0.7,0.9,1.2c0.2,0.5,0.3,0.9,0.3,1.5c0,0.5-0.1,1-0.3,1.5c-0.2,0.5-0.5,0.9-0.9,1.2
		s-0.9,0.6-1.4,0.8C27.4,243.8,26.7,243.9,26,243.9 M14.7,17.3L14.7,17.3L14.7,17.3L14.7,17.3L14.7,17.3c0,1.2,0.5,2.3,1.3,3.1
		c0.8,0.8,1.9,1.3,3.1,1.3l0,0l0,0l0,0l0,0c1.2,0,2.3-0.5,3.1-1.3c0.8-0.8,1.3-1.9,1.3-3.1l0,0l0,0l0,0l0,0c0-1.2-0.5-2.3-1.3-3.1
		l0,0c-0.8-0.8-1.9-1.3-3.1-1.3l0,0l0,0l0,0l0,0c-1.2,0-2.3,0.5-3.1,1.3l0,0C15.2,14.9,14.7,16.1,14.7,17.3 M18.7,17.1v1.4H17v-1.6
		c0-0.3,0.1-0.5,0.2-0.7c0.2-0.1,0.4-0.2,0.6-0.2s0.3,0,0.4,0.1c0.1,0.1,0.2,0.1,0.3,0.2c0.1,0.1,0.1,0.2,0.1,0.4
		C18.7,16.8,18.7,17,18.7,17.1 M16.5,19.1h4.9v-0.7h-2.1v-1.6c0-0.2,0-0.3,0.1-0.4c0-0.1,0.1-0.2,0.2-0.2c0.1-0.1,0.2-0.1,0.3-0.1
		c0.1,0,0.2-0.1,0.3-0.1c0.1,0,0.2,0,0.4,0c0.1,0,0.2,0,0.3,0c0.1,0,0.2,0,0.3,0c0.1,0,0.2,0,0.2-0.1v-0.7c-0.1,0.1-0.2,0.1-0.3,0.2
		c-0.1,0-0.2,0.1-0.3,0.1c-0.1,0-0.2,0-0.4,0c-0.1,0-0.2,0-0.4,0c-0.1,0-0.2,0-0.3,0.1c-0.1,0-0.2,0.1-0.3,0.1
		c-0.1,0.1-0.2,0.1-0.2,0.2c-0.1,0.1-0.1,0.2-0.1,0.3l0,0c-0.1-0.3-0.2-0.5-0.5-0.7c-0.2-0.1-0.5-0.2-0.8-0.2
		c-0.4,0-0.7,0.1-0.9,0.4c-0.2,0.3-0.3,0.6-0.3,1.1v2.3C16.6,19.1,16.5,19.1,16.5,19.1z M13.9,17.3L13.9,17.3L13.9,17.3
		c0-1.4,0.6-2.7,1.5-3.6l0,0c0.9-0.9,2.2-1.5,3.6-1.5l0,0l0,0l0,0l0,0c1.4,0,2.7,0.6,3.6,1.5s1.5,2.2,1.5,3.6l0,0l0,0
		c0,1.4-0.6,2.7-1.5,3.6s-2.2,1.5-3.6,1.5l0,0l0,0l0,0l0,0c-1.4,0-2.7-0.6-3.6-1.5S13.9,18.7,13.9,17.3L13.9,17.3L13.9,17.3z
		 M15.3,259H32v-11.1h-1.9v8.8H15.3V259z"/>
</g>
</svg>
